<?xml version="1.0" encoding="utf-8"?>
<!-- Generator: Adobe Illustrator 21.0.0, SVG Export Plug-In . SVG Version: 6.00 Build 0)  -->
<svg version="1.1" xmlns="http://www.w3.org/2000/svg" xmlns:xlink="http://www.w3.org/1999/xlink" x="0px" y="0px"
	 viewBox="0 0 248.9 294.4" style="enable-background:new 0 0 248.9 294.4;" xml:space="preserve">
<style type="text/css">
	.st0{fill:#E55F68;}
	.st1{fill:#5CB2A2;}
	.st2{fill:#64BFAE;}
	.st3{fill:#6FC8B8;}
</style>
<symbol  id="New_Symbol" viewBox="-118.2 -147.2 236.5 294.4">
	<path class="st0" d="M26.6,92.1c-11.8-3.4-23.3-8.8-34-16.2c-52.7-36.6-65.7-109-29.1-161.7c16.6-23.9,40.6-39.6,66.8-46.3
		c-46.6-13.5-98.5,3.3-127.7,45.3C-134.1-34.1-121,38.2-68.4,74.9C-39.6,94.9-4.9,100.1,26.6,92.1z"/>
	<path class="st1" d="M78.2,56.7c3.9-11.7,6.1-24.2,6.1-37.2c0-64.2-52-116.2-116.2-116.2c-29.1,0-55.7,10.7-76.1,28.4
		c15.5-45.9,58.9-79,110.1-79c64.2,0,116.2,52,116.2,116.2C118.2,4,102.7,35.4,78.2,56.7z"/>
	<path class="st2" d="M24.2,112.9c7.7-9.6,14-20.6,18.4-32.9C64.6,19.7,33.5-46.9-26.8-68.9c-27.4-10-56-9-81.2,0.7
		c30.3-37.8,82.4-54.1,130.4-36.6c60.3,21.9,91.4,88.6,69.4,148.9C79.9,77,54.6,101.2,24.2,112.9z"/>
	<path class="st3" d="M-45.7,147.2c10.5-6.4,20.2-14.6,28.6-24.6C24.1,73.5,17.7,0.2-31.5-41.1C-53.8-59.8-81-68.7-108-68.2
		C-66.6-93.4-12.1-90.8,27.1-58C76.2-16.7,82.6,56.6,41.4,105.7C18.9,132.5-13.2,146.6-45.7,147.2z"/>
</symbol>
<g id="Black_bakground">
	<rect x="344.5" y="-52.8" width="400" height="400"/>
</g>
<g id="Icons">
	
		<use xlink:href="#New_Symbol"  width="236.5" height="294.4" id="On_white_background" x="-118.2" y="-147.2" transform="matrix(1 0 0 -1 124.4671 147.185)" style="overflow:visible;"/>
	
		<use xlink:href="#New_Symbol"  width="236.5" height="294.4" id="on_Black" x="-118.2" y="-147.2" transform="matrix(1 0 0 -1 544.4671 147.185)" style="overflow:visible;"/>
</g>
</svg>
